<?xml version="1.0" encoding="UTF-8"?>
<svg id="Layer_2" data-name="Layer 2" xmlns="http://www.w3.org/2000/svg" viewBox="0 0 16 16">
  <defs>
    <style>
      .cls-1 {
        fill: #282827;
      }

      .cls-2 {
        fill: #ebdbb2;
      }
    </style>
  </defs>
  <g id="Layer_3" data-name="Layer 3">
    <rect class="cls-1" x="0" y="0" width="16" height="16" rx="8" ry="8"/>
    <g>
      <path class="cls-2" d="M7.83,5.86c-.13-.09-.28-.15-.46-.15-.27,0-.51,.14-.65,.36-.05,.07-.11,.13-.19,.16-.31,.14-.53,.46-.53,.82,0,.02,0,.03,0,.05,0,.09-.03,.17-.1,.22-.2,.17-.32,.41-.32,.69,0,.15,.04,.3,.11,.43,.06,.11,.08,.23,.07,.35,0,.02,0,.03,0,.05,0,.41,.27,.76,.65,.87,.11,.03,.21,.11,.28,.21,.13,.22,.37,.36,.65,.36,.18,0,.35-.06,.48-.17,.03-.02,.04-.05,.04-.09V5.95s-.02-.07-.05-.09Zm-1.64,2.01s-.02,.02-.07,.08c-.05,.07-.08,.1-.08,.14,0,.05,.04,.09,.04,.1,0,0,.05,.05,.11,.05,.08,0,.08-.08,.17-.12,.06-.02,.12,0,.17,0,.07,.02,.08,.05,.22,.12,.07,.04,.09,.04,.12,.04,.05-.01,.07-.06,.09-.12,.06-.13,.1-.22,.15-.28,.11-.12,.27-.14,.31-.14,.06,0,.19,0,.27,.08,.04,.04,.05,.09,.06,.12,0,0,0,.01,0,.02v.46c0,.05-.04,.1-.09,.11-.01,0-.02,0-.04,0-.03,0-.12,0-.18-.06-.04-.04-.04-.09-.04-.13-.01-.11,.03-.15,0-.2-.02-.04-.08-.07-.12-.06-.07,0-.11,.07-.13,.11-.06,.11-.02,.16-.08,.23-.06,.07-.17,.08-.21,.08-.02,0-.1,0-.19-.04-.11-.06-.11-.14-.2-.16,0,0-.08-.01-.13,.04,0,0-.05,.05-.04,.11,0,.04,.04,.04,.07,.1,0,.01,.06,.09,.04,.18-.01,.06-.04,.07-.05,.13,0,.02,0,.09,.04,.12,.04,.04,.1,.02,.12,.02,.08-.02,.1-.07,.16-.12,.02-.02,.04-.03,.33-.12,.2-.06,.22-.07,.25-.06,.09,.02,.1,.08,.21,.1,.07,.01,.09,0,.15,.01,.05,.02,.09,.06,.11,.1,0,.02,.01,.04,.01,.05,0,.24,0,.47-.01,.71,0,0,0,.02,0,.03-.01,.05-.06,.19-.19,.25-.11,.05-.21,.02-.32-.01-.06-.02-.21-.06-.32-.2-.04-.04-.1-.13-.1-.24,0-.04,0-.11,.06-.15,.05-.04,.13-.03,.18,0,.04,.03,.06,.07,.09,.13,.05,.11,.03,.15,.08,.19,.03,.03,.08,.05,.13,.04,0,0,.05-.01,.07-.05,.01-.03,0-.05,0-.09-.01-.06-.03-.07-.03-.11,0-.04,.02-.06,.02-.07,.04-.06,.09-.05,.16-.11,.03-.03,.07-.06,.07-.12,0-.04-.02-.09-.06-.12-.04-.03-.09-.02-.11-.01-.08,.02-.09,.07-.16,.09-.02,0-.05,0-.15-.01-.22-.04-.22-.07-.28-.06-.08,.01-.16,.07-.21,.13-.04,.06-.03,.09-.09,.17-.04,.05-.07,.09-.11,.1-.07,.01-.13-.05-.22-.14-.08-.09-.15-.16-.19-.28-.02-.08-.03-.14-.03-.23,0-.17,.03-.2,0-.3-.03-.1-.06-.09-.11-.21-.06-.16-.04-.31-.04-.36,0-.04,.02-.14,.08-.24,.04-.07,.08-.11,.15-.19,.11-.12,.15-.12,.17-.18,.02-.06,0-.09,0-.21,0-.1,.01-.17,.04-.25,.05-.17,.2-.33,.27-.31,.04,.01,0,.08,.09,.21,.03,.04,.06,.08,.07,.14,0,.02,0,.06,0,.11-.03,.09-.09,.09-.14,.18,0,.02-.07,.13-.03,.22,.02,.04,.06,.08,.12,.08,.04,0,.07-.03,.08-.05,.04-.04,.03-.08,.07-.14,0-.01,.05-.06,.11-.08,.05-.02,.08,0,.16,.02,.07,.01,.23,.04,.29-.03,0,0,.04-.04,.03-.09-.02-.09-.16-.1-.31-.19-.04-.02-.23-.15-.26-.37,0-.02-.03-.24,.13-.4,.17-.17,.5-.21,.65-.03,.09,.1,.08,.24,.07,.33-.01,.07-.09,.11-.15,.08,0,0,0,0,0,0-.05-.02-.05-.06-.12-.11-.05-.04-.09-.08-.15-.07-.05,.01-.09,.07-.1,.12-.01,.06,.02,.11,.06,.16,.03,.04,.1,.14,.23,.17,.06,.02,.1,0,.16,.04,.02,.01,.04,.03,.05,.04,.02,.02,.03,.04,.03,.07,.01,.19,.01,.33,0,.41,0,.04-.01,.09-.05,.12,0,0-.02,.02-.05,.03-.08,.03-.15-.03-.22-.03-.06,0-.17,0-.29,.06-.1,.05-.09,.09-.29,.23-.12,.09-.16,.1-.21,.1-.08,0-.15-.08-.16-.1-.06-.07-.04-.13-.11-.17,0,0-.05-.03-.1-.02-.07,.02-.09,.1-.09,.11-.02,.07,.03,.11,0,.17Z"/>
      <path class="cls-2" d="M8.12,5.95v4.08s.02,.07,.04,.09c.13,.11,.3,.17,.48,.17,.27,0,.51-.14,.65-.36,.06-.1,.16-.18,.28-.21,.38-.11,.65-.46,.65-.87,0-.02,0-.03,0-.05,0-.12,.02-.24,.07-.35,.07-.13,.11-.27,.11-.43,0-.28-.12-.53-.32-.69-.07-.06-.1-.14-.1-.22,0-.02,0-.03,0-.05,0-.37-.22-.68-.53-.82-.08-.04-.14-.09-.19-.16-.13-.21-.37-.36-.65-.36-.17,0-.33,.06-.46,.15-.03,.02-.05,.05-.05,.09Zm1.68,1.75s-.02-.09-.09-.11c-.05-.01-.09,.01-.1,.02-.06,.04-.05,.1-.11,.17-.01,.01-.07,.09-.16,.1-.05,0-.09-.01-.21-.1-.2-.15-.19-.18-.29-.23-.12-.06-.23-.06-.29-.06-.07,0-.14,.06-.22,.03-.03-.01-.04-.02-.05-.03-.04-.03-.05-.08-.05-.12,0-.08,0-.22,0-.41,0-.02,.01-.05,.03-.07,.01-.01,.03-.03,.05-.04,.06-.04,.1-.02,.16-.04,.13-.03,.2-.14,.23-.17,.03-.05,.07-.1,.06-.16,0-.05-.05-.11-.1-.12-.05,0-.1,.03-.15,.07-.06,.05-.07,.09-.12,.11,0,0,0,0,0,0-.06,.03-.14-.01-.15-.08-.02-.09-.02-.23,.07-.33,.15-.18,.48-.14,.65,.03,.16,.16,.13,.38,.13,.4-.03,.22-.22,.34-.26,.37-.15,.1-.29,.1-.31,.19,0,.05,.03,.09,.03,.09,.06,.07,.22,.04,.29,.03,.08-.02,.11-.04,.16-.02,.06,.02,.1,.07,.11,.08,.04,.06,.03,.1,.07,.14,.02,.02,.04,.04,.08,.05,.05,0,.1-.04,.12-.08,.05-.09-.02-.2-.03-.22-.05-.09-.11-.09-.14-.18-.01-.05,0-.09,0-.11,.01-.06,.04-.1,.07-.14,.08-.13,.05-.2,.09-.21,.07-.02,.21,.14,.27,.31,.02,.08,.03,.15,.04,.25,0,.12-.02,.15,0,.21,.02,.06,.05,.06,.17,.18,.07,.08,.11,.12,.15,.19,.06,.1,.07,.2,.08,.24,0,.05,.03,.19-.04,.36-.05,.12-.08,.11-.11,.21-.03,.1,0,.13,0,.3,0,.09,0,.16-.03,.23-.04,.12-.11,.19-.19,.28-.09,.09-.15,.16-.22,.14-.05,0-.08-.05-.11-.1-.06-.07-.04-.11-.09-.17-.04-.06-.12-.12-.21-.13-.06,0-.06,.01-.28,.06-.11,.02-.13,.02-.15,.01-.07-.02-.08-.07-.16-.09-.02,0-.07-.01-.11,.01-.04,.03-.06,.07-.06,.12,0,.05,.04,.09,.07,.12,.07,.06,.12,.05,.16,.11,0,.01,.02,.04,.02,.07,0,.04-.02,.05-.03,.11,0,.04-.02,.07,0,.09,.02,.04,.06,.05,.07,.05,.05,0,.09,0,.13-.04,.05-.04,.03-.08,.08-.19,.03-.06,.04-.1,.09-.13,.05-.03,.12-.04,.18,0,.06,.04,.06,.12,.06,.15,0,.11-.06,.19-.1,.24-.11,.14-.26,.19-.32,.2-.11,.03-.21,.06-.32,.01-.13-.06-.17-.2-.19-.25,0,0,0-.02,0-.03,0-.24,0-.47-.01-.71,0-.02,0-.04,.01-.05,.02-.04,.06-.08,.11-.1,.05-.02,.08,0,.15-.01,.11-.02,.12-.08,.21-.1,.03,0,.05,0,.25,.06,.29,.09,.31,.11,.33,.12,.06,.05,.09,.11,.16,.12,.02,0,.08,.02,.12-.02,.04-.04,.04-.1,.04-.12,0-.06-.04-.07-.05-.13-.01-.09,.04-.17,.04-.18,.04-.05,.07-.06,.07-.1,0-.06-.04-.11-.04-.11-.05-.05-.13-.04-.13-.04-.09,.02-.09,.1-.2,.16-.08,.04-.16,.04-.19,.04-.04,0-.15,0-.21-.08-.06-.07-.01-.12-.08-.23-.02-.04-.06-.11-.13-.11-.05,0-.1,.02-.12,.06-.03,.05,.02,.09,0,.2,0,.04,0,.09-.04,.13-.06,.07-.15,.06-.18,.06-.01,0-.02,0-.04,0-.05,0-.09-.06-.09-.11v-.46s0-.01,0-.02c0-.03,.02-.08,.06-.12,.08-.09,.22-.09,.27-.08,.04,0,.2,.01,.31,.14,.05,.06,.09,.15,.15,.28,.03,.06,.05,.11,.09,.12,.02,0,.05,0,.12-.04,.14-.07,.16-.1,.22-.12,.05-.01,.1-.03,.17,0,.09,.03,.1,.11,.17,.12,.06,0,.11-.04,.11-.05,0,0,.05-.05,.04-.1,0-.04-.03-.07-.08-.14-.05-.06-.06-.06-.07-.08-.03-.06,.02-.1,0-.17Z"/>
    </g>
    <g>
      <path class="cls-2" d="M11.91,9.87c.03-.06,.05-.11,.08-.17,0,0,0-.01,0-.02,.09-.22,.16-.44,.22-.66l.18,.05h.02s.21,.06,.21,.06h.02s.18,.05,.18,.05h.02s.18,.05,.18,.05c-.06,.23-.13,.46-.22,.68l-.34-.2c.03-.07,.05-.14,.07-.2l.17,.09s0-.01,0-.02c.02-.06,.04-.12,.06-.19,0,0,0-.01,0-.02l-.18-.05h-.02s-.21-.07-.21-.07c0,0,0,.01,0,.02-.05,.17-.11,.34-.18,.51,0,0,0,0,0,.02l.71,.41c.29-.65,.46-1.35,.47-2.08h-.15s-.02,0-.02,0h-.18s-.02,0-.02,0h-.19s-.02,0-.02,0h-.22s0,0,0,0c0,.18-.02,.37-.05,.55,0,0,0,.01,0,.02l.21,.05h.02s.18,.04,.18,.04c0,0,0-.01,0-.02,0-.05,.01-.1,.02-.15,0,0,0-.01,0-.02l-.18-.04c.01-.09,.02-.17,.02-.26l.19,.03h.02s.18,.03,.18,.03c-.01,.24-.05,.49-.1,.73l-.17-.04h-.02s-.18-.05-.18-.05h-.02s-.21-.06-.21-.06h-.02s-.18-.05-.18-.05c.07-.33,.09-.66,.08-.99h.19s.02,0,.02,0h.22s.02,0,.02,0h.19s.02,0,.02,0h.18s.02,0,.02,0h.15c-.02-1.03-.34-2.01-.9-2.84l-.88,.51c-.04-.05-.07-.1-.11-.15,0,0,0,0,0-.01-.14-.19-.3-.36-.46-.52l.13-.13h.01s.15-.17,.15-.17h.01s.13-.15,.13-.15h.01s.13-.14,.13-.14c.17,.16,.33,.34,.48,.53l-.34,.2c-.05-.06-.09-.11-.14-.17l.16-.1s0,0-.01-.01c-.04-.05-.09-.1-.13-.14,0,0,0,0-.01-.01l-.14,.13h-.01s-.16,.16-.16,.16c0,0,0,0,.01,.01,.12,.13,.24,.27,.35,.41,0,0,0,0,0,.01l.71-.41c-.17-.23-.35-.45-.56-.66-.31-.31-.65-.57-1.01-.79l-.08,.13v.02s-.11,.15-.11,.15v.02s-.11,.16-.11,.16v.02s-.13,.18-.13,.18c0,0,0,0,.01,0,.16,.09,.31,.2,.45,.31,0,0,0,0,.01,.01l.15-.16h.01s.12-.15,.12-.15c0,0,0,0-.01-.01-.04-.03-.08-.06-.12-.09,0,0,0,0-.01,0l-.13,.14c-.07-.05-.14-.1-.21-.15l.11-.15v-.02s.12-.14,.12-.14c.2,.13,.4,.28,.58,.45l-.13,.13h-.01s-.13,.15-.13,.15h-.01s-.15,.17-.15,.17h-.01s-.13,.15-.13,.15c-.25-.22-.53-.41-.82-.56l.09-.16v-.02s.12-.19,.12-.19v-.02s.1-.16,.1-.16v-.02s.1-.16,.1-.16v-.02s.09-.13,.09-.13c-.77-.42-1.65-.65-2.55-.65-.11,0-.22,0-.33,.01v1.02c-.06,0-.12,.01-.19,.02,0,0-.01,0-.02,0-.23,.03-.46,.08-.68,.14l-.05-.18v-.02s-.06-.21-.06-.21v-.02s-.06-.18-.06-.18v-.02s-.05-.17-.05-.17c.23-.07,.46-.12,.7-.15v.39c-.07,.01-.14,.02-.21,.04v-.19s-.02,0-.02,0c-.06,.01-.13,.03-.19,.04,0,0-.01,0-.02,0l.04,.18v.02s.05,.21,.05,.21c0,0,.01,0,.02,0,.17-.04,.35-.07,.53-.09,0,0,.01,0,.02,0v-.82c-.72,.07-1.41,.28-2.04,.63l.07,.14v.02s.09,.16,.09,.16v.02s.1,.17,.1,.17v.02s.11,.19,.11,.19c0,0,0,0,.01,0,.16-.09,.33-.17,.5-.23,0,0,0,0,.02,0l-.07-.21v-.02s-.06-.18-.06-.18c0,0,0,0-.02,0-.05,.02-.09,.04-.14,.06,0,0,0,0-.02,0l.06,.18c-.08,.03-.16,.07-.24,.11l-.07-.17v-.02s-.07-.17-.07-.17c.22-.11,.45-.2,.68-.28l.05,.17v.02s.06,.18,.06,.18v.02s.07,.21,.07,.21v.02s.06,.18,.06,.18c-.32,.11-.62,.25-.9,.42l-.09-.16v-.02s-.12-.19-.12-.19v-.02s-.1-.16-.1-.16v-.02s-.1-.16-.1-.16v-.02s-.09-.13-.09-.13c-.36,.22-.7,.48-1,.79-.42,.42-.76,.89-1.01,1.41l.89,.51c-.03,.06-.05,.11-.08,.17,0,0,0,.01,0,.02-.09,.22-.16,.44-.22,.66l-.18-.05h-.02s-.21-.06-.21-.06h-.02s-.18-.05-.18-.05h-.02s-.18-.05-.18-.05c.06-.23,.13-.46,.22-.68l.34,.2c-.03,.07-.05,.14-.07,.2l-.17-.09s0,.01,0,.02c-.02,.06-.04,.12-.06,.19,0,0,0,.01,0,.02l.18,.05h.02s.21,.07,.21,.07c0,0,0-.01,0-.02,.05-.17,.11-.34,.18-.51,0,0,0,0,0-.02l-.71-.41c-.29,.65-.46,1.35-.47,2.08h.15s.02,0,.02,0h.18s.02,0,.02,0h.19s.02,0,.02,0h.22s0,0,0,0c0-.18,.02-.37,.05-.55,0,0,0-.01,0-.02l-.21-.05h-.02s-.18-.04-.18-.04c0,0,0,.01,0,.02,0,.05-.01,.1-.02,.15,0,0,0,.01,0,.02l.18,.04c-.01,.09-.02,.17-.02,.26l-.19-.03h-.02s-.18-.03-.18-.03c.01-.24,.05-.49,.1-.73l.17,.04h.02s.18,.05,.18,.05h.02s.21,.06,.21,.06h.02s.18,.05,.18,.05c-.07,.33-.09,.66-.08,.99h-.19s-.02,0-.02,0h-.22s-.02,0-.02,0h-.19s-.02,0-.02,0h-.18s-.02,0-.02,0h-.15c.02,1.03,.34,2,.9,2.84l.88-.51c.04,.05,.07,.1,.11,.15,0,0,0,0,0,.01,.14,.19,.3,.36,.46,.52l-.13,.13h-.01s-.15,.17-.15,.17h-.01s-.13,.15-.13,.15h-.01s-.13,.14-.13,.14c-.17-.16-.33-.34-.48-.53l.34-.2c.05,.06,.09,.11,.14,.17l-.16,.1s0,0,.01,.01c.04,.05,.09,.1,.13,.14,0,0,0,0,.01,.01l.14-.13h.01s.16-.16,.16-.16c0,0,0,0-.01-.01-.12-.13-.24-.27-.35-.41,0,0,0,0,0-.01l-.71,.41c.17,.23,.35,.45,.56,.66,.31,.31,.65,.57,1.01,.79l.08-.13v-.02s.11-.15,.11-.15v-.02s.11-.16,.11-.16v-.02s.13-.18,.13-.18c0,0,0,0-.01,0-.16-.09-.31-.2-.45-.31,0,0,0,0-.01-.01l-.15,.16h-.01s-.12,.15-.12,.15c0,0,0,0,.01,.01,.04,.03,.08,.06,.12,.09,0,0,0,0,.01,0l.13-.14c.07,.05,.14,.1,.21,.15l-.11,.15v.02s-.12,.14-.12,.14c-.2-.13-.4-.28-.58-.45l.13-.13h.01s.13-.15,.13-.15h.01s.15-.17,.15-.17h.01s.13-.15,.13-.15c.25,.22,.53,.41,.82,.56l-.09,.16v.02s-.12,.19-.12,.19v.02s-.1,.16-.1,.16v.02s-.1,.16-.1,.16v.02s-.09,.13-.09,.13c.77,.42,1.65,.65,2.55,.65,.11,0,.22,0,.33-.01v-1.02c.06,0,.12-.01,.19-.02,0,0,.01,0,.02,0,.23-.03,.46-.08,.68-.14l.05,.18v.02s.06,.21,.06,.21v.02s.06,.18,.06,.18v.02s.05,.17,.05,.17c-.23,.07-.46,.12-.7,.15v-.39c.07-.01,.14-.02,.21-.04v.19s.02,0,.02,0c.06-.01,.13-.03,.19-.04,0,0,.01,0,.02,0l-.04-.18v-.02s-.05-.21-.05-.21c0,0-.01,0-.02,0-.17,.04-.35,.07-.53,.09,0,0-.01,0-.02,0v.82c.72-.07,1.41-.28,2.04-.63l-.07-.14v-.02s-.09-.16-.09-.16v-.02s-.1-.17-.1-.17v-.02s-.11-.19-.11-.19c0,0,0,0-.01,0-.16,.09-.33,.17-.5,.23,0,0,0,0-.02,0l.07,.21v.02s.06,.18,.06,.18c0,0,0,0,.02,0,.05-.02,.09-.04,.14-.06,0,0,0,0,.02,0l-.06-.18c.08-.03,.16-.07,.24-.11l.07,.17v.02s.07,.17,.07,.17c-.22,.11-.45,.2-.68,.28l-.05-.17v-.02s-.06-.18-.06-.18v-.02s-.07-.21-.07-.21v-.02s-.06-.18-.06-.18c.32-.11,.62-.25,.9-.42l.09,.16v.02s.12,.19,.12,.19v.02s.1,.16,.1,.16v.02s.1,.16,.1,.16v.02s.09,.13,.09,.13c.36-.22,.7-.48,1-.79,.42-.42,.76-.89,1.01-1.41l-.89-.51Zm0,1.52l-.15-.11h-.01s-.16-.12-.16-.12h-.01s-.18-.14-.18-.14h-.01s-.15-.12-.15-.12c.13-.14,.25-.3,.36-.46l.37,.21c-.04,.05-.07,.11-.11,.16l-.19-.11s0,0,0,.01c-.03,.05-.07,.09-.11,.14,0,0,0,0-.01,.01l.37,.22s0,0,.01-.01c.12-.15,.23-.31,.33-.48,0,0,0,0,0-.01l-.7-.4c-.29,.47-.66,.87-1.1,1.19l.1,.12h0s.12,.16,.12,.16h.01s.14,.18,.14,.18h.01s.12,.16,.12,.16c0,0,0,0,.01,0,.17-.13,.34-.27,.49-.42,0,0,0,0,.01-.01l-.15-.12h-.01s-.17-.15-.17-.15c0,0,0,0-.01,.01-.04,.04-.08,.08-.13,.11,0,0,0,0-.01,.01l.15,.16c-.05,.05-.1,.09-.16,.13l-.13-.18h-.01s-.11-.16-.11-.16c.13-.1,.25-.21,.37-.33l.15,.11h.01s.18,.14,.18,.14h.01s.15,.13,.15,.13h.01s.15,.12,.15,.12c-.26,.28-.56,.53-.87,.74l-.1-.15v-.02s-.12-.15-.12-.15v-.02s-.14-.18-.14-.18v-.02s-.12-.15-.12-.15h0s-.09-.14-.09-.14c-.64,.43-1.41,.69-2.23,.71v1s-.06,0-.09,0c-.34,0-.67-.03-.99-.09l.02-.18v-.02s.02-.19,.02-.19v-.02s.02-.22,.02-.22v-.02s.02-.19,.02-.19c.19,.04,.38,.07,.58,.08v.42c-.06,0-.13,0-.19-.02v-.22s-.01,0-.02,0c-.06,0-.12-.01-.17-.02,0,0-.01,0-.02,0v.43s.01,0,.02,0c.19,.03,.38,.04,.58,.05,0,0,.01,0,.02,0v-.81c-.56-.02-1.1-.14-1.59-.36l-.05,.14h0s-.07,.19-.07,.19v.02s-.08,.21-.08,.21v.02s-.07,.18-.07,.18c0,0,0,0,.02,0,.2,.09,.4,.16,.61,.22,0,0,.01,0,.02,0l.03-.19v-.02s.04-.22,.04-.22c0,0-.01,0-.02,0-.05-.02-.11-.03-.16-.05,0,0,0,0-.02,0l-.06,.21c-.07-.02-.13-.05-.19-.07l.09-.2v-.02s.08-.17,.08-.17c.15,.06,.31,.11,.47,.15l-.02,.19v.02s-.03,.22-.03,.22v.02s-.03,.19-.03,.19v.02s-.03,.18-.03,.18c-.37-.09-.73-.22-1.07-.39l.07-.16v-.02s.09-.17,.09-.17v-.02s.1-.2,.1-.2v-.02s.09-.17,.09-.17v-.02s.07-.14,.07-.14c-.71-.35-1.3-.9-1.72-1.57l-.87,.5s-.03-.05-.04-.07c-.17-.29-.31-.59-.41-.9l.17-.08h.02s.17-.09,.17-.09h.02s.2-.1,.2-.1h.02s.17-.09,.17-.09c.06,.18,.13,.36,.22,.54l-.37,.21c-.03-.06-.06-.12-.08-.17l.19-.11s0-.01,0-.02c-.02-.05-.05-.11-.07-.16,0,0,0-.01,0-.02l-.37,.22s0,.01,0,.02c.07,.18,.15,.35,.25,.52,0,0,0,0,0,.01l.7-.4c-.26-.47-.43-.99-.49-1.55l-.15,.03h-.02s-.18,.03-.18,.03h-.02s-.22,.04-.22,.04h-.02s-.19,.03-.19,.03c0,0,0,.01,0,.02,.02,.21,.06,.43,.12,.64,0,0,0,.01,0,.02l.18-.07h.02s.21-.09,.21-.09c0,0,0-.01,0-.02-.01-.06-.03-.11-.04-.17,0,0,0-.01,0-.02l-.21,.05c-.01-.07-.03-.14-.04-.2l.22-.03h.02s.18-.03,.18-.03c.03,.16,.06,.33,.11,.49l-.17,.07h-.02s-.2,.09-.2,.09h-.02s-.17,.08-.17,.08h-.02s-.17,.08-.17,.08c-.11-.37-.18-.75-.2-1.12l.18-.02h.02s.19-.02,.19-.02h.02s.22-.02,.22-.02h.02s.19-.02,.19-.02h.02s.15-.02,.15-.02c0-.09-.01-.19-.01-.29,0-.73,.19-1.41,.51-2l-.87-.5s.03-.05,.04-.08c.17-.29,.36-.56,.57-.81l.15,.11h.01s.16,.12,.16,.12h.01s.18,.14,.18,.14h.01s.15,.12,.15,.12c-.13,.14-.25,.3-.36,.46l-.37-.21c.04-.05,.07-.11,.11-.16l.19,.11s0,0,0-.01c.03-.05,.07-.09,.11-.14,0,0,0,0,.01-.01l-.37-.22s0,0-.01,.01c-.12,.15-.23,.31-.33,.48,0,0,0,0,0,.01l.7,.4c.29-.47,.66-.87,1.1-1.19l-.1-.12h0s-.12-.16-.12-.16h-.01s-.14-.18-.14-.18h-.01s-.12-.16-.12-.16c0,0,0,0-.01,0-.17,.13-.34,.27-.49,.42,0,0,0,0-.01,.01l.15,.12h.01s.17,.15,.17,.15c0,0,0,0,.01-.01,.04-.04,.08-.08,.13-.11,0,0,0,0,.01-.01l-.15-.16c.05-.05,.1-.09,.16-.13l.13,.18h.01s.11,.16,.11,.16c-.13,.1-.25,.21-.37,.33l-.15-.11h-.01s-.18-.14-.18-.14h-.01s-.15-.13-.15-.13h-.01s-.15-.12-.15-.12c.26-.28,.56-.53,.87-.74l.1,.15v.02s.12,.15,.12,.15v.02s.14,.18,.14,.18v.02s.12,.15,.12,.15h0s.09,.14,.09,.14c.64-.43,1.41-.69,2.23-.71v-1s.06,0,.09,0c.34,0,.67,.03,.99,.09l-.02,.18v.02s-.02,.19-.02,.19v.02s-.02,.22-.02,.22v.02s-.02,.19-.02,.19c-.19-.04-.38-.07-.58-.08v-.42c.06,0,.13,0,.19,.02v.22s.01,0,.02,0c.06,0,.12,.01,.17,.02,0,0,.01,0,.02,0v-.43s-.01,0-.02,0c-.19-.03-.38-.04-.58-.05,0,0-.01,0-.02,0v.81c.56,.02,1.1,.14,1.59,.36l.05-.14h0s.07-.19,.07-.19v-.02s.08-.21,.08-.21v-.02s.07-.18,.07-.18c0,0,0,0-.02,0-.2-.09-.4-.16-.61-.22,0,0-.01,0-.02,0l-.03,.19v.02s-.04,.22-.04,.22c0,0,.01,0,.02,0,.05,.02,.11,.03,.16,.05,0,0,0,0,.02,0l.06-.21c.07,.02,.13,.05,.19,.07l-.09,.2v.02s-.08,.17-.08,.17c-.15-.06-.31-.11-.47-.15l.02-.19v-.02s.03-.22,.03-.22v-.02s.03-.19,.03-.19v-.02s.03-.18,.03-.18c.37,.09,.73,.22,1.07,.39l-.07,.16v.02s-.09,.17-.09,.17v.02s-.1,.2-.1,.2v.02s-.09,.17-.09,.17v.02s-.07,.14-.07,.14c.71,.35,1.3,.9,1.72,1.57l.87-.5s.03,.05,.04,.07c.17,.29,.31,.59,.41,.9l-.17,.08h-.02s-.17,.09-.17,.09h-.02s-.2,.1-.2,.1h-.02s-.17,.09-.17,.09c-.06-.18-.13-.36-.22-.54l.37-.21c.03,.06,.06,.12,.08,.17l-.19,.11s0,.01,0,.02c.02,.05,.05,.11,.07,.16,0,0,0,.01,0,.02l.37-.22s0-.01,0-.02c-.07-.18-.15-.35-.25-.52,0,0,0,0,0-.01l-.7,.4c.26,.47,.43,.99,.49,1.55l.15-.03h.02s.18-.03,.18-.03h.02s.22-.04,.22-.04h.02s.19-.03,.19-.03c0,0,0-.01,0-.02-.02-.21-.06-.43-.12-.64,0,0,0-.01,0-.02l-.18,.07h-.02s-.21,.09-.21,.09c0,0,0,.01,0,.02,.01,.06,.03,.11,.04,.17,0,0,0,.01,0,.02l.21-.05c.01,.07,.03,.14,.04,.2l-.22,.03h-.02s-.18,.03-.18,.03c-.03-.16-.06-.33-.11-.49l.17-.07h.02s.2-.09,.2-.09h.02s.17-.08,.17-.08h.02s.17-.08,.17-.08c.11,.37,.18,.75,.2,1.12l-.18,.02h-.02s-.19,.02-.19,.02h-.02s-.22,.02-.22,.02h-.02s-.19,.02-.19,.02h-.02s-.15,.02-.15,.02c0,.09,.01,.19,.01,.29,0,.73-.19,1.41-.51,2l.87,.5s-.03,.05-.04,.08c-.17,.29-.36,.56-.57,.81Z"/>
      <path class="cls-2" d="M8,13.64c-3.11,0-5.64-2.53-5.64-5.64S4.89,2.36,8,2.36s5.64,2.53,5.64,5.64-2.53,5.64-5.64,5.64Zm0-11.14c-3.04,0-5.5,2.47-5.5,5.5s2.47,5.5,5.5,5.5,5.5-2.47,5.5-5.5-2.47-5.5-5.5-5.5Z"/>
    </g>
  </g>
</svg>