<?xml version="1.0" encoding="UTF-8"?>
<svg id="Layer_2" data-name="Layer 2" xmlns="http://www.w3.org/2000/svg" viewBox="0 0 360.34 360.34">
  <defs>
    <style>
      .cls-1 {
        fill: #282827;
      }
    </style>
  </defs>
  <g id="Layer_3" data-name="Layer 3">
    <g>
      <polygon class="cls-1" points="0 225.38 0 225.38 0 251.06 12.84 238.22 0 225.38"/>
      <polygon class="cls-1" points="83.6 360.34 96.57 360.34 122.14 334.76 147.71 360.34 147.71 360.34 160.42 360.34 160.42 360.33 90.08 290 58.16 321.92 83.73 347.5 102.92 328.3 90.08 315.47 83.63 321.92 90.08 328.38 83.7 334.76 70.86 321.93 90.08 302.71 115.66 328.28 83.6 360.34"/>
      <polygon class="cls-1" points="0 45.21 0 45.21 0 70.89 12.84 58.05 0 45.21"/>
      <polygon class="cls-1" points="0 315.12 6.46 308.66 0 302.2 6.38 295.82 19.22 308.66 0 327.88 0 327.88 0 340.59 0 340.59 31.93 308.66 6.35 283.09 0 289.44 0 315.12 0 315.12"/>
      <polygon class="cls-1" points="263.77 360.34 276.73 360.34 302.31 334.76 327.88 360.33 327.88 360.34 340.59 360.34 340.59 360.33 270.25 290 238.33 321.92 263.9 347.5 283.09 328.3 270.25 315.46 263.79 321.92 270.25 328.38 263.87 334.76 251.03 321.93 270.25 302.71 295.82 328.28 263.77 360.34"/>
      <polygon class="cls-1" points="19.75 360.34 32.46 360.34 32.46 360.33 51.68 341.12 64.51 353.95 58.13 360.33 51.67 353.88 45.21 360.33 45.22 360.34 70.89 360.34 77.25 353.98 51.67 328.41 19.75 360.33 19.75 360.34"/>
      <polygon class="cls-1" points="134.95 360.34 134.95 360.34 122.11 347.5 109.27 360.34 134.95 360.34"/>
      <polygon class="cls-1" points="225.38 0 225.38 0 238.22 12.84 251.06 0 225.38 0"/>
      <polygon class="cls-1" points="315.12 360.34 315.12 360.34 302.28 347.5 289.44 360.34 315.12 360.34"/>
      <polygon class="cls-1" points="0 134.95 6.46 128.49 0 122.04 6.38 115.66 19.22 128.49 0 147.71 0 147.71 0 160.42 0 160.42 31.93 128.49 6.35 102.92 0 109.28 0 134.95 0 134.95"/>
      <polygon class="cls-1" points="96.57 0 83.6 0 58.03 25.57 32.46 0 32.46 0 19.75 0 19.75 0 90.08 70.34 122.01 38.41 96.44 12.84 77.25 32.03 90.08 44.87 96.54 38.41 90.08 31.95 96.47 25.57 109.3 38.41 90.08 57.63 64.51 32.06 96.57 0"/>
      <polygon class="cls-1" points="276.74 0 263.77 0 238.2 25.57 212.62 0 212.62 0 199.92 0 199.92 0 270.25 70.34 302.18 38.41 276.6 12.84 257.41 32.03 270.25 44.87 276.71 38.41 270.25 31.95 276.63 25.57 289.47 38.41 270.25 57.63 244.68 32.06 276.74 0"/>
      <polygon class="cls-1" points="340.59 0 327.88 0 327.88 0 308.66 19.22 295.82 6.38 302.2 0 308.66 6.46 315.12 0 315.12 0 289.44 0 283.09 6.35 308.66 31.93 340.59 0 340.59 0"/>
      <polygon class="cls-1" points="0 32.46 25.57 58.03 0 83.6 0 96.57 32.06 64.51 57.63 90.08 38.41 109.3 25.57 96.47 31.95 90.08 38.41 96.54 44.87 90.08 32.03 77.25 12.84 96.44 38.41 122.01 70.34 90.08 0 19.75 0 19.75 0 32.46 0 32.46"/>
      <polygon class="cls-1" points="160.42 0 147.71 0 147.71 0 128.49 19.22 115.66 6.38 122.04 0 128.49 6.46 134.95 0 134.95 0 109.28 0 102.92 6.35 128.49 31.93 160.42 0 160.42 0"/>
      <polygon class="cls-1" points="45.21 0 45.21 0 58.05 12.84 70.89 0 45.21 0"/>
      <polygon class="cls-1" points="0 212.62 25.57 238.2 0 263.77 0 276.74 32.06 244.68 57.63 270.25 38.41 289.47 25.57 276.63 31.95 270.25 38.41 276.71 44.87 270.25 32.03 257.41 12.84 276.6 38.41 302.18 70.34 270.25 0 199.92 0 199.92 0 212.62 0 212.62"/>
      <polygon class="cls-1" points="360.34 134.95 360.34 134.95 360.33 109.27 347.5 122.11 360.34 134.95"/>
      <polygon class="cls-1" points="199.92 360.34 212.62 360.34 212.62 360.33 231.84 341.12 244.68 353.95 238.3 360.33 231.84 353.88 225.38 360.33 225.38 360.34 251.06 360.34 257.41 353.98 231.84 328.41 199.92 360.33 199.92 360.34"/>
      <polygon class="cls-1" points="360.33 147.71 334.76 122.14 360.33 96.57 360.34 83.6 328.28 115.66 302.71 90.08 321.93 70.87 334.76 83.7 328.38 90.08 321.92 83.63 315.46 90.08 328.3 102.92 347.5 83.73 321.92 58.16 290 90.08 360.33 160.42 360.33 160.42 360.34 147.71 360.33 147.71"/>
      <polygon class="cls-1" points="360.33 315.12 360.34 315.12 360.34 289.44 347.5 302.28 360.33 315.12"/>
      <polygon class="cls-1" points="328.41 231.84 353.98 257.41 360.33 251.06 360.34 225.38 360.33 225.38 353.88 231.84 360.33 238.3 353.95 244.68 341.12 231.84 360.33 212.62 360.34 212.62 360.33 199.92 360.33 199.92 328.41 231.84"/>
      <path class="cls-1" d="M360.33,353.55l-83.3-83.3,83.3-83.3h0s0-13.56,0-13.56h0s-83.3-83.3-83.3-83.3L360.33,6.78h0s0-6.78,0-6.78h-6.78s0,0,0,0l-83.3,83.3L186.95,0h0s-13.56,0-13.56,0h0S90.08,83.3,90.08,83.3L6.78,0h0S0,0,0,0V6.78H0S83.3,90.08,83.3,90.08L0,173.39h0s0,13.56,0,13.56H0s83.3,83.3,83.3,83.3L0,353.55H0s0,6.78,0,6.78H6.78s83.3-83.3,83.3-83.3l83.3,83.3h0s13.56,0,13.56,0h0s83.3-83.3,83.3-83.3l83.3,83.3h0s6.78,0,6.78,0v-6.78s0,0,0,0ZM96.86,90.08L180.17,6.78l83.3,83.3-83.3,83.3L96.86,90.08Zm90.08,90.08l83.3-83.3,83.3,83.3-83.3,83.3-83.3-83.3Zm76.52,90.08l-83.3,83.3-83.3-83.3,83.3-83.3,83.3,83.3Zm-90.08-90.08l-83.3,83.3L6.78,180.17,90.08,96.86l83.3,83.3Z"/>
      <polygon class="cls-1" points="360.33 327.88 334.76 302.31 360.34 276.73 360.34 263.77 328.28 295.82 302.71 270.25 321.93 251.03 334.76 263.87 328.38 270.25 321.92 263.79 315.46 270.25 328.3 283.09 347.5 263.9 321.92 238.33 290 270.25 360.33 340.59 360.34 340.59 360.34 327.88 360.33 327.88"/>
      <polygon class="cls-1" points="328.41 51.67 353.98 77.25 360.34 70.89 360.34 45.22 360.33 45.21 353.88 51.67 360.33 58.13 353.95 64.51 341.12 51.68 360.33 32.46 360.34 32.46 360.34 19.75 360.33 19.75 328.41 51.67"/>
      <polygon class="cls-1" points="263.9 167.33 283.09 148.14 270.25 135.3 263.79 141.76 270.25 148.22 263.87 154.6 251.03 141.76 270.25 122.54 295.82 148.11 238.2 205.74 212.62 180.17 231.84 160.95 244.68 173.79 238.3 180.17 231.84 173.71 225.38 180.17 238.22 193.01 257.41 173.82 231.84 148.24 199.92 180.17 270.25 250.5 302.18 218.58 276.6 193.01 257.41 212.2 270.25 225.04 276.71 218.58 270.25 212.12 276.63 205.74 289.47 218.58 270.25 237.8 244.68 212.22 302.31 154.6 327.88 180.17 308.66 199.39 295.82 186.55 302.2 180.17 308.66 186.63 315.12 180.17 302.28 167.33 283.09 186.52 308.66 212.09 340.59 180.17 270.25 109.83 238.33 141.76 263.9 167.33"/>
      <polygon class="cls-1" points="186.52 283.09 167.33 302.28 180.17 315.12 186.63 308.66 180.17 302.2 186.55 295.82 199.39 308.66 180.17 327.88 154.6 302.31 212.22 244.68 237.8 270.25 218.58 289.47 205.74 276.63 212.12 270.25 218.58 276.71 225.04 270.25 212.2 257.41 193.01 276.6 218.58 302.18 250.5 270.25 180.17 199.92 148.24 231.84 173.82 257.41 193.01 238.22 180.17 225.38 173.71 231.84 180.17 238.3 173.79 244.68 160.95 231.84 180.17 212.62 205.74 238.2 148.11 295.82 122.54 270.25 141.76 251.03 154.6 263.87 148.22 270.25 141.76 263.79 135.3 270.25 148.14 283.09 167.33 263.9 141.76 238.33 109.83 270.25 180.17 340.59 212.09 308.66 186.52 283.09"/>
      <polygon class="cls-1" points="173.81 77.25 193.01 58.05 180.17 45.21 173.71 51.67 180.17 58.13 173.79 64.51 160.95 51.68 180.17 32.46 205.74 58.03 148.11 115.66 122.54 90.08 141.76 70.87 154.6 83.7 148.22 90.08 141.76 83.62 135.3 90.08 148.14 102.92 167.33 83.73 141.76 58.16 109.83 90.08 180.17 160.42 212.09 128.49 186.52 102.92 167.33 122.11 180.17 134.95 186.63 128.5 180.17 122.04 186.55 115.66 199.39 128.49 180.17 147.71 154.6 122.14 212.22 64.51 237.8 90.08 218.58 109.3 205.74 96.47 212.12 90.08 218.58 96.54 225.04 90.08 212.2 77.25 193.01 96.44 218.58 122.01 250.5 90.08 180.17 19.75 148.24 51.67 173.81 77.25"/>
      <polygon class="cls-1" points="96.44 193.01 77.25 212.2 90.08 225.04 96.54 218.58 90.08 212.12 96.47 205.74 109.3 218.58 90.08 237.8 64.51 212.22 122.14 154.6 147.71 180.17 128.49 199.39 115.66 186.55 122.04 180.17 128.5 186.63 134.95 180.17 122.11 167.33 102.92 186.52 128.49 212.09 160.42 180.17 90.08 109.83 58.16 141.76 83.73 167.33 102.92 148.14 90.08 135.3 83.62 141.76 90.08 148.22 83.7 154.6 70.87 141.76 90.08 122.54 115.66 148.11 58.03 205.74 32.46 180.17 51.68 160.95 64.51 173.79 58.13 180.17 51.67 173.71 45.21 180.17 58.05 193.01 77.25 173.81 51.67 148.24 19.75 180.17 90.08 250.5 122.01 218.58 96.44 193.01"/>
    </g>
  </g>
</svg>