<?xml version="1.0" encoding="utf-8"?>
<!-- Generator: Adobe Illustrator 27.0.1, SVG Export Plug-In . SVG Version: 6.00 Build 0)  -->
<svg version="1.1" id="Layer_2_00000137810172898165936860000007231966244661373118_"
	 xmlns="http://www.w3.org/2000/svg" xmlns:xlink="http://www.w3.org/1999/xlink" x="0px" y="0px" viewBox="0 0 245.8 245.8"
	 style="enable-background:new 0 0 245.8 245.8;" xml:space="preserve">
<style type="text/css">
	.st0{fill:#121212;}
	.st1{fill:#EBDBB2;}
</style>
<g id="Layer_3">
	<g>
		<circle class="st0" cx="122.9" cy="122.9" r="121.8"/>
		<g>
			<path class="st1" d="M208.1,163.6c0.6-1.2,1.1-2.5,1.7-3.7c0.1-0.1,0.1-0.2,0.1-0.3c2-4.7,3.6-9.5,4.7-14.4l3.9,1l0.4,0.1
				l4.6,1.2l0.4,0.1l4,1l0.4,0.1l3.8,1c-1.2,5-2.8,10-4.8,14.9l-7.4-4.3c0.6-1.5,1.1-3,1.6-4.5l3.7,1.9c0.1-0.1,0.1-0.2,0.1-0.3
				c0.5-1.4,0.9-2.7,1.3-4.1c0.1-0.1,0.1-0.2,0.1-0.4l-3.9-1.2l-0.4-0.1l-4.6-1.4c0,0.1-0.1,0.2-0.1,0.4c-1.1,3.8-2.4,7.4-4,11.1
				c0,0.1-0.1,0.2-0.1,0.3l15.5,8.9c6.4-14.1,9.9-29.5,10.3-45.4l-3.3-0.1l-0.4,0l-3.9-0.2h-0.4l-4.1-0.2l-0.4,0l-4.8-0.2
				c0,0.1,0,0.2,0,0.4c-0.1,4-0.4,8-1,11.9c0,0.1,0,0.2-0.1,0.4l4.7,1l0.4,0.1l4,0.8c0-0.1,0.1-0.2,0.1-0.4c0.2-1.1,0.3-2.1,0.4-3.2
				c0-0.1,0-0.2,0-0.4l-4-0.9c0.2-1.9,0.4-3.8,0.5-5.6l4,0.6l0.4,0.1l3.9,0.5c-0.3,5.3-1,10.6-2.1,15.9l-3.8-1l-0.4-0.1l-4-1
				l-0.4-0.1l-4.6-1.2l-0.4-0.1l-3.9-1c1.4-7.2,2-14.4,1.8-21.6h4.1l0.4,0h4.8h0.4h4.1l0.4,0h3.9h0.4h3.3
				c-0.5-22.4-7.3-43.7-19.6-62l-19.3,11.2c-0.8-1.1-1.6-2.2-2.4-3.3c-0.1-0.1-0.1-0.2-0.2-0.3c-3.1-4.1-6.5-7.8-10.1-11.2l2.8-2.9
				l0.3-0.3l3.3-3.4l0.3-0.3l2.9-2.9l0.3-0.3l2.8-2.8c3.7,3.6,7.3,7.4,10.5,11.6l-7.4,4.3c-1-1.2-2-2.5-3.1-3.6l3.5-2.2
				c-0.1-0.1-0.1-0.2-0.2-0.3c-0.9-1.1-1.9-2.1-2.9-3.1c-0.1-0.1-0.2-0.2-0.2-0.3l-3,2.8l-0.3,0.3l-3.5,3.3c0.1,0.1,0.2,0.2,0.2,0.3
				c2.7,2.8,5.2,5.8,7.6,9c0.1,0.1,0.1,0.2,0.2,0.3l15.5-9c-3.6-5-7.7-9.9-12.2-14.3c-6.7-6.7-14.1-12.5-22-17.3l-1.8,2.8l-0.2,0.4
				l-2.1,3.3l-0.2,0.4l-2.2,3.4l-0.2,0.4l-2.6,4c0.1,0.1,0.2,0.1,0.3,0.2c3.4,2.1,6.7,4.3,9.8,6.8c0.1,0.1,0.2,0.1,0.3,0.2l3.2-3.6
				l0.3-0.3l2.7-3c-0.1-0.1-0.2-0.2-0.3-0.2c-0.8-0.7-1.7-1.3-2.6-2c-0.1-0.1-0.2-0.1-0.3-0.2l-2.8,3c-1.5-1.1-3.1-2.2-4.7-3.2
				l2.5-3.2l0.3-0.3l2.4-3.1c4.5,2.9,8.7,6.2,12.8,9.8l-2.7,2.8l-0.3,0.3l-2.8,3l-0.3,0.3l-3.3,3.5l-0.3,0.3l-2.8,2.9
				c-5.5-4.8-11.5-8.9-17.8-12.3l2-3.5l0.2-0.4l2.4-4.1l0.2-0.4l2-3.5l0.2-0.4l2-3.4l0.2-0.4l1.7-2.9c-16.9-9.2-35.9-14.1-55.7-14.1
				c-2.4,0-4.8,0.1-7.2,0.2v22.2c-1.4,0.1-2.7,0.2-4,0.4c-0.1,0-0.2,0-0.4,0c-5.1,0.6-10,1.7-14.8,3.1l-1.1-3.9l-0.1-0.4l-1.3-4.6
				l-0.1-0.4L92.7,19l-0.1-0.4l-1.1-3.8c5-1.4,10.1-2.6,15.3-3.3v8.6c-1.6,0.2-3.1,0.5-4.7,0.8l-0.2-4.2c-0.1,0-0.2,0-0.3,0.1
				c-1.4,0.3-2.8,0.6-4.2,0.9c-0.1,0-0.2,0-0.4,0.1l0.9,4l0.1,0.4l1.1,4.7c0.1,0,0.2-0.1,0.4-0.1c3.8-0.9,7.7-1.6,11.6-2.1
				c0.1,0,0.2,0,0.4,0V6.8C95.8,8.3,80.7,12.9,67,20.4l1.5,3l0.2,0.4l1.8,3.5l0.2,0.4l1.9,3.6l0.2,0.4l2.2,4.2
				c0.1-0.1,0.2-0.1,0.3-0.2c3.5-1.9,7.1-3.6,10.8-5.1c0.1,0,0.2-0.1,0.3-0.1L85,25.9l-0.1-0.4l-1.3-3.9c-0.1,0-0.2,0.1-0.3,0.1
				c-1,0.4-2,0.8-3,1.2c-0.1,0-0.2,0.1-0.3,0.1l1.2,3.9c-1.7,0.8-3.4,1.5-5.1,2.4l-1.5-3.8l-0.2-0.4l-1.5-3.6
				c4.8-2.4,9.8-4.4,14.9-6.1l1.1,3.8l0.1,0.4l1.1,3.9l0.1,0.4l1.3,4.6l0.1,0.4l1.1,3.9c-6.9,2.3-13.5,5.4-19.6,9.2l-2-3.5l-0.2-0.4
				l-2.4-4.1l-0.2-0.4l-2-3.5L66,29.9l-2-3.4l-0.2-0.4l-1.7-2.9C54.3,28,47,33.7,40.3,40.4c-9.1,9.1-16.5,19.5-22.1,30.7l19.3,11.1
				c-0.6,1.2-1.1,2.5-1.7,3.7c0,0.1-0.1,0.2-0.1,0.3c-2,4.7-3.5,9.5-4.7,14.3l-3.9-1l-0.4-0.1l-4.6-1.2l-0.4-0.1l-4-1l-0.4-0.1
				l-3.8-1c1.2-5,2.8-10,4.8-14.9l7.4,4.3c-0.6,1.5-1.1,3-1.6,4.5l-3.7-1.9c0,0.1-0.1,0.2-0.1,0.3c-0.5,1.3-0.9,2.7-1.3,4.1
				c0,0.1-0.1,0.2-0.1,0.3l3.9,1.2l0.4,0.1l4.6,1.4c0-0.1,0.1-0.2,0.1-0.3c1.1-3.8,2.4-7.4,4-11.1c0-0.1,0.1-0.2,0.1-0.3l-15.5-8.9
				c-6.4,14.1-9.9,29.5-10.3,45.4l3.2,0.1l0.4,0l3.9,0.2h0.4l4.1,0.2l0.4,0l4.8,0.2c0-0.1,0-0.2,0-0.4c0.1-4,0.4-8,1-11.9
				c0-0.1,0-0.2,0-0.3l-4.7-1l-0.4-0.1l-4-0.8c0,0.1-0.1,0.2-0.1,0.3c-0.2,1.1-0.3,2.1-0.4,3.2c0,0.1,0,0.2,0,0.4l4,0.9
				c-0.2,1.9-0.4,3.8-0.5,5.7l-4-0.6l-0.4-0.1l-3.9-0.5c0.3-5.3,1-10.7,2.1-15.9l3.8,1l0.4,0.1l4,1l0.4,0.1l4.6,1.2l0.4,0.1l3.9,1
				c-1.4,7.2-2,14.4-1.8,21.6H24l-0.4,0h-4.8h-0.4h-4.1l-0.4,0H9.9H9.5H6.2c0.5,22.4,7.3,43.7,19.5,61.9l19.3-11.2
				c0.8,1.1,1.6,2.2,2.4,3.3c0.1,0.1,0.2,0.2,0.2,0.3c3.1,4.1,6.5,7.8,10.1,11.2l-2.8,2.9l-0.3,0.3l-3.3,3.4l-0.3,0.3l-2.8,2.9
				l-0.3,0.3l-2.8,2.8c-3.7-3.6-7.3-7.4-10.5-11.6l7.4-4.3c1,1.2,2,2.4,3.1,3.6l-3.5,2.2c0.1,0.1,0.2,0.2,0.2,0.3
				c0.9,1.1,1.9,2.1,2.9,3.1c0.1,0.1,0.2,0.2,0.2,0.3l3-2.8l0.3-0.3l3.5-3.3c-0.1-0.1-0.2-0.2-0.2-0.3c-2.7-2.8-5.2-5.8-7.6-9
				c-0.1-0.1-0.1-0.2-0.2-0.3l-15.5,9c3.6,5.1,7.7,9.9,12.2,14.4c6.7,6.7,14.1,12.5,22,17.3l1.8-2.8l0.2-0.4l2.1-3.3l0.2-0.4
				l2.2-3.4l0.2-0.4l2.6-4c-0.1-0.1-0.2-0.1-0.3-0.2c-3.4-2.1-6.7-4.3-9.8-6.8c-0.1-0.1-0.2-0.1-0.3-0.2l-3.2,3.6l-0.3,0.3l-2.7,3
				c0.1,0.1,0.2,0.1,0.3,0.2c0.8,0.7,1.7,1.3,2.6,2c0.1,0.1,0.2,0.1,0.3,0.2l2.8-3c1.5,1.1,3.1,2.2,4.7,3.2l-2.5,3.2l-0.3,0.3
				l-2.4,3.1c-4.5-2.9-8.7-6.2-12.8-9.8l2.7-2.8l0.3-0.3l2.8-2.9l0.3-0.3l3.3-3.4l0.3-0.3l2.8-2.9c5.5,4.8,11.5,8.9,17.8,12.3
				l-2,3.5l-0.2,0.4l-2.4,4.1l-0.2,0.4l-2,3.5l-0.2,0.4l-2,3.4l-0.2,0.4l-1.7,2.9c16.9,9.2,35.9,14.1,55.7,14.1
				c2.4,0,4.8-0.1,7.2-0.2v-22.2c1.4-0.1,2.7-0.2,4-0.4c0.1,0,0.2,0,0.4,0c5.1-0.6,10-1.7,14.8-3.1l1.1,3.9l0.1,0.4l1.3,4.6l0.1,0.4
				l1.1,3.9l0.1,0.4l1.1,3.8c-5,1.4-10.1,2.6-15.3,3.3v-8.6c1.6-0.2,3.1-0.5,4.7-0.8l0.2,4.2c0.1,0,0.2,0,0.3-0.1
				c1.4-0.3,2.8-0.6,4.2-0.9c0.1,0,0.2,0,0.4-0.1l-0.9-4l-0.1-0.4l-1.1-4.7c-0.1,0-0.2,0.1-0.4,0.1c-3.8,0.9-7.7,1.6-11.6,2.1
				c-0.1,0-0.2,0-0.4,0V239c15.8-1.5,30.9-6.1,44.6-13.6l-1.5-2.9L177,222l-1.8-3.5l-0.2-0.4l-1.9-3.6l-0.2-0.4l-2.2-4.2
				c-0.1,0.1-0.2,0.1-0.3,0.2c-3.5,1.9-7.1,3.6-10.8,5.1c-0.1,0-0.2,0.1-0.3,0.1l1.5,4.6l0.1,0.4l1.3,3.9c0.1,0,0.2-0.1,0.3-0.1
				c1-0.4,2-0.8,3-1.2c0.1,0,0.2-0.1,0.3-0.1l-1.2-3.9c1.7-0.7,3.4-1.6,5.1-2.4l1.5,3.8l0.2,0.4l1.5,3.6c-4.8,2.4-9.8,4.4-14.9,6.1
				l-1.1-3.8l-0.1-0.4l-1.1-3.9l-0.1-0.4l-1.3-4.6l-0.1-0.4l-1.1-3.9c6.9-2.3,13.5-5.4,19.6-9.2l2,3.5l0.2,0.4l2.4,4.1l0.2,0.4
				l2,3.5l0.2,0.4l2,3.4l0.2,0.4l1.7,2.9c7.9-4.8,15.2-10.5,21.9-17.2c9.1-9.1,16.5-19.5,22.1-30.7L208.1,163.6L208.1,163.6z
				 M208.4,196.7l-3.3-2.3l-0.3-0.2l-3.4-2.4l-0.3-0.2l-4-2.8l-0.3-0.2l-3.3-2.4c2.8-3.1,5.4-6.4,7.9-10l8,4.6
				c-0.8,1.2-1.6,2.3-2.4,3.4l-4.2-2.4c-0.1,0.1-0.1,0.2-0.2,0.3c-0.8,1-1.5,2-2.3,3c-0.1,0.1-0.1,0.2-0.2,0.3l8.2,4.7
				c0.1-0.1,0.2-0.2,0.2-0.3c2.6-3.3,5-6.7,7.2-10.4c0.1-0.1,0.1-0.2,0.2-0.3l-15.2-8.8c-6.2,10.2-14.4,19-24.1,26l2.1,2.6l0.2,0.3
				l2.6,3.2l0.3,0.3l3,3.7l0.3,0.3l2.6,3.2c0.1-0.1,0.2-0.1,0.3-0.2c3.8-2.8,7.4-5.8,10.8-9.1c0.1-0.1,0.2-0.2,0.3-0.3l-3.2-2.6
				l-0.3-0.2l-3.8-3.1c-0.1,0.1-0.2,0.2-0.3,0.3c-0.9,0.9-1.8,1.7-2.7,2.5c-0.1,0.1-0.2,0.1-0.3,0.2l3.3,3.5c-1.1,1-2.3,2-3.5,2.9
				l-2.9-3.8l-0.2-0.3l-2.4-3.2c2.8-2.3,5.5-4.7,8-7.3l3.3,2.5l0.3,0.2l3.9,2.9l0.3,0.2l3.3,2.5l0.3,0.2l3.2,2.4
				c-5.8,6.1-12.1,11.5-19,16.1l-2.2-3.2l-0.2-0.4l-2.4-3.3l-0.2-0.4l-2.8-3.9l-0.2-0.3l-2.3-3.3l-0.2-0.3l-1.9-2.7
				c-14,9.4-30.7,15-48.7,15.4v21.9c-0.6,0-1.2,0-1.9,0c-7.3,0-14.5-0.7-21.5-2.1l0.4-4l0-0.4l0.4-4.1l0-0.4l0.4-4.8l0-0.4l0.4-4.1
				c4.1,0.9,8.3,1.5,12.6,1.8v9.3c-1.4-0.1-2.8-0.2-4.2-0.4v-4.9c-0.1,0-0.2,0-0.4,0c-1.3-0.1-2.5-0.3-3.8-0.5c-0.1,0-0.2,0-0.4-0.1
				v9.4c0.1,0,0.2,0,0.4,0.1c4.1,0.6,8.3,1,12.6,1.1c0.1,0,0.2,0,0.4,0V214c-12.3-0.3-24-3.1-34.6-7.9l-1.2,3.1l-0.1,0.3l-1.4,3.8
				l-0.1,0.4l-1.7,4.5l-0.1,0.4l-1.4,3.8c0.1,0.1,0.2,0.1,0.3,0.1c4.3,1.9,8.7,3.5,13.3,4.8c0.1,0,0.2,0.1,0.4,0.1l0.7-4.1l0.1-0.4
				l0.8-4.8c-0.1,0-0.2-0.1-0.4-0.1c-1.2-0.3-2.4-0.7-3.5-1.1c-0.1,0-0.2-0.1-0.3-0.1l-1.4,4.6c-1.4-0.5-2.8-1-4.2-1.6l1.9-4.4
				l0.2-0.4l1.6-3.7c3.3,1.3,6.8,2.4,10.3,3.3l-0.5,4.1l0,0.4L98,224l0,0.4l-0.5,4.1l-0.1,0.4l-0.5,3.9c-8.2-1.9-16-4.8-23.4-8.4
				l1.6-3.5l0.2-0.4l1.7-3.7l0.2-0.4l2-4.3l0.2-0.4l1.7-3.7l0.1-0.3l1.4-3c-15.4-7.7-28.4-19.6-37.4-34.2l-18.9,11
				c-0.3-0.5-0.6-1.1-1-1.6c-3.7-6.4-6.7-12.9-9-19.6l3.6-1.7l0.4-0.2l3.8-1.8l0.3-0.1l4.4-2.1l0.3-0.2l3.7-1.7
				c1.3,4,2.9,7.9,4.7,11.8l-8,4.6c-0.6-1.3-1.2-2.5-1.8-3.8l4.2-2.4c0-0.1-0.1-0.2-0.1-0.3c-0.5-1.2-1-2.3-1.4-3.5
				c0-0.1-0.1-0.2-0.1-0.3l-8.1,4.7c0,0.1,0.1,0.2,0.1,0.3c1.5,3.9,3.4,7.7,5.4,11.4c0.1,0.1,0.1,0.2,0.2,0.3l15.2-8.8
				c-5.6-10.2-9.3-21.7-10.6-33.8l-3.3,0.6l-0.3,0.1l-4,0.7l-0.4,0.1l-4.7,0.8l-0.4,0.1l-4,0.7c0,0.1,0,0.2,0,0.4
				c0.5,4.6,1.4,9.3,2.5,13.9c0,0.1,0.1,0.2,0.1,0.4l3.9-1.5l0.4-0.1l4.5-1.8c0-0.1-0.1-0.2-0.1-0.4c-0.3-1.2-0.6-2.4-0.8-3.6
				c0-0.1,0-0.2-0.1-0.3l-4.7,1.1c-0.3-1.5-0.6-3-0.8-4.4l4.8-0.6l0.4-0.1l4-0.5c0.6,3.6,1.3,7.1,2.3,10.6l-3.8,1.6l-0.3,0.1
				l-4.5,1.9l-0.4,0.2l-3.8,1.6l-0.4,0.1l-3.7,1.6c-2.4-8-3.9-16.2-4.4-24.4l3.9-0.4l0.4,0l4.1-0.4l0.4,0l4.8-0.4l0.4,0l4-0.4l0.4,0
				l3.3-0.3c-0.1-2.1-0.2-4.1-0.2-6.2c0-15.8,4.1-30.7,11.2-43.7L24,68.4c0.3-0.6,0.6-1.1,0.9-1.6c3.7-6.4,7.9-12.2,12.5-17.6
				l3.3,2.3l0.3,0.2l3.4,2.4l0.3,0.2l4,2.8l0.3,0.2l3.3,2.3c-2.8,3.1-5.4,6.4-7.9,10l-8-4.6c0.8-1.2,1.6-2.3,2.4-3.4l4.2,2.4
				c0.1-0.1,0.2-0.2,0.2-0.3c0.8-1,1.5-2,2.3-3c0.1-0.1,0.2-0.2,0.2-0.3l-8.2-4.7c-0.1,0.1-0.2,0.2-0.2,0.3c-2.6,3.3-5,6.7-7.2,10.4
				c-0.1,0.1-0.1,0.2-0.2,0.3l15.2,8.8c6.2-10.2,14.5-19,24.1-26l-2.2-2.6l-0.2-0.3l-2.6-3.2L64.1,43l-3-3.7L60.8,39l-2.6-3.2
				c-0.1,0.1-0.2,0.1-0.3,0.2c-3.8,2.8-7.3,5.8-10.8,9.1c-0.1,0.1-0.2,0.2-0.3,0.3l3.2,2.6l0.3,0.2l3.8,3c0.1-0.1,0.2-0.2,0.3-0.3
				c0.9-0.9,1.8-1.7,2.7-2.5c0.1-0.1,0.2-0.2,0.3-0.2l-3.3-3.5c1.1-1,2.3-2,3.5-2.9l2.9,3.8l0.2,0.3l2.5,3.2c-2.8,2.3-5.5,4.7-8,7.3
				l-3.3-2.5l-0.3-0.2l-3.8-2.9l-0.3-0.2l-3.3-2.5l-0.3-0.2l-3.2-2.4c5.8-6.1,12.1-11.5,19-16l2.2,3.2l0.2,0.4l2.3,3.3l0.2,0.3
				l2.8,3.9l0.2,0.3l2.3,3.3l0.2,0.3l1.9,2.7c14-9.4,30.7-15,48.7-15.4V9.9c0.6,0,1.2,0,1.9,0c7.3,0,14.5,0.7,21.5,2.1l-0.4,4l0,0.4
				l-0.4,4.1l0,0.4l-0.4,4.8l0,0.4l-0.4,4.1c-4.1-0.9-8.3-1.5-12.6-1.8V19c1.4,0.1,2.8,0.2,4.2,0.4v4.9c0.1,0,0.2,0,0.4,0
				c1.3,0.1,2.5,0.3,3.8,0.5c0.1,0,0.2,0,0.4,0.1v-9.4c-0.1,0-0.2,0-0.4-0.1c-4.1-0.6-8.3-1-12.6-1.1c-0.1,0-0.2,0-0.4,0v17.6
				c12.3,0.3,23.9,3.1,34.6,7.9l1.2-3.2l0.1-0.3l1.4-3.8l0.1-0.4l1.7-4.5l0.1-0.4l1.4-3.8c-0.1-0.1-0.2-0.1-0.3-0.1
				c-4.3-1.9-8.7-3.5-13.3-4.8c-0.1,0-0.2-0.1-0.4-0.1l-0.6,4.1l-0.1,0.4l-0.8,4.8c0.1,0,0.2,0.1,0.4,0.1c1.2,0.3,2.4,0.7,3.5,1.1
				c0.1,0,0.2,0.1,0.3,0.1l1.4-4.6c1.4,0.5,2.8,1,4.2,1.6l-1.9,4.4l-0.2,0.4l-1.6,3.7c-3.4-1.3-6.8-2.4-10.3-3.3l0.5-4.1l0-0.4
				l0.6-4.8l0-0.4l0.5-4.1l0.1-0.4l0.5-3.9c8.2,1.9,16,4.8,23.4,8.4l-1.6,3.5l-0.2,0.4l-1.7,3.7l-0.2,0.4l-2,4.3l-0.2,0.4l-1.7,3.7
				l-0.1,0.3l-1.4,3c15.4,7.7,28.4,19.5,37.4,34.2l18.9-11c0.3,0.5,0.6,1.1,1,1.6c3.7,6.4,6.7,12.9,9,19.6l-3.6,1.7l-0.4,0.2
				l-3.8,1.8l-0.3,0.1l-4.4,2.1l-0.3,0.2l-3.7,1.7c-1.3-4-2.9-7.9-4.7-11.8l8-4.7c0.6,1.3,1.2,2.5,1.8,3.8l-4.2,2.4
				c0.1,0.1,0.1,0.2,0.1,0.3c0.5,1.2,1,2.3,1.4,3.5c0.1,0.1,0.1,0.2,0.1,0.3l8.1-4.7c0-0.1-0.1-0.2-0.1-0.3
				c-1.6-3.9-3.4-7.7-5.4-11.4c-0.1-0.1-0.1-0.2-0.2-0.3l-15.2,8.8c5.6,10.2,9.3,21.7,10.6,33.8l3.3-0.6l0.3-0.1l4-0.7l0.4-0.1
				l4.7-0.8l0.4-0.1l4-0.7c0-0.1,0-0.2,0-0.4c-0.5-4.7-1.4-9.3-2.6-13.9c0-0.1-0.1-0.2-0.1-0.4l-3.9,1.5l-0.4,0.2l-4.5,1.8
				c0,0.1,0.1,0.2,0.1,0.4c0.3,1.2,0.6,2.4,0.8,3.6c0,0.1,0.1,0.2,0.1,0.3l4.7-1.1c0.3,1.5,0.6,3,0.8,4.4l-4.8,0.6l-0.4,0.1l-4,0.5
				c-0.6-3.6-1.3-7.1-2.3-10.6l3.8-1.6l0.3-0.2l4.5-1.9l0.4-0.2l3.8-1.6l0.4-0.2l3.7-1.6c2.4,8,3.9,16.2,4.5,24.4l-3.9,0.4l-0.4,0
				l-4.1,0.4l-0.4,0l-4.8,0.4l-0.4,0l-4,0.4l-0.4,0l-3.3,0.3c0.1,2.1,0.2,4.1,0.2,6.2c0,15.8-4.1,30.7-11.2,43.7l19,10.9
				c-0.3,0.6-0.6,1.1-0.9,1.6C217.2,185.5,213,191.3,208.4,196.7L208.4,196.7z"/>
			<path class="st1" d="M122.9,245.8C55.1,245.8,0,190.6,0,122.9S55.1,0,122.9,0s122.9,55.1,122.9,122.9S190.6,245.8,122.9,245.8z
				 M122.9,2.9c-66.2,0-120,53.8-120,120s53.8,120,120,120s120-53.8,120-120S189.1,2.9,122.9,2.9L122.9,2.9z"/>
		</g>
	</g>
</g>
</svg>
