<?xml version="1.0" encoding="UTF-8"?>
<svg id="Layer_2" data-name="Layer 2" xmlns="http://www.w3.org/2000/svg" viewBox="0 0 245.78 245.78">
  <defs>
    <style>
      .cls-1 {
        fill: #282827;
      }

      .cls-2 {
        fill: #ebdbb2;
      }
    </style>
  </defs>
  <g id="Layer_3" data-name="Layer 3">
    <g>
      <circle class="cls-1" cx="122.89" cy="122.89" r="121.8"/>
      <g>
        <path class="cls-2" d="M208.15,163.6c.58-1.24,1.14-2.47,1.67-3.7,.05-.12,.1-.23,.14-.33,1.98-4.71,3.55-9.5,4.72-14.35l3.94,1,.37,.1,4.64,1.18,.39,.09,3.97,1.01,.39,.09,3.83,.98c-1.22,5.02-2.81,10.01-4.78,14.89l-7.42-4.27c.59-1.48,1.12-2.96,1.61-4.46l3.69,1.94c.05-.12,.08-.22,.11-.33,.46-1.35,.89-2.7,1.28-4.06,.05-.12,.08-.23,.1-.35l-3.94-1.17-.37-.11-4.61-1.38c-.02,.12-.06,.25-.1,.35-1.1,3.75-2.43,7.45-3.99,11.07-.04,.11-.09,.21-.14,.33l15.53,8.93c6.41-14.13,9.94-29.51,10.3-45.43l-3.26-.14-.42-.02-3.92-.17h-.42s-4.07-.19-4.07-.19l-.43-.03-4.77-.2c0,.12,0,.24,0,.36-.08,3.99-.4,7.97-.99,11.92-.01,.11-.03,.23-.05,.35l4.69,.99,.41,.09,4,.84c.03-.1,.05-.22,.05-.35,.17-1.06,.31-2.14,.43-3.21,.02-.12,.03-.23,.04-.36l-3.99-.88c.22-1.87,.37-3.75,.47-5.65l4.04,.56,.43,.06,3.89,.54c-.32,5.32-1.03,10.65-2.15,15.94l-3.82-.96-.41-.1-3.97-1-.39-.09-4.65-1.17-.39-.09-3.93-.99c1.44-7.16,2.03-14.41,1.78-21.6h4.06s.43-.01,.43-.01h4.76s.43,0,.43,0h4.07s.42-.01,.42-.01h3.94s.42,0,.42,0h3.27c-.54-22.39-7.32-43.72-19.56-61.97l-19.26,11.2c-.78-1.12-1.57-2.22-2.38-3.29-.08-.1-.15-.2-.22-.29-3.1-4.07-6.47-7.81-10.09-11.24l2.83-2.92,.27-.27,3.34-3.44,.28-.29,2.85-2.94,.28-.29,2.76-2.83c3.74,3.56,7.27,7.43,10.53,11.57l-7.4,4.3c-.99-1.25-2-2.45-3.07-3.62l3.53-2.23c-.08-.1-.15-.18-.24-.26-.94-1.08-1.89-2.12-2.88-3.13-.08-.1-.16-.19-.25-.27l-2.98,2.83-.28,.26-3.5,3.31c.09,.08,.18,.17,.25,.27,2.7,2.82,5.24,5.82,7.61,8.97,.07,.09,.14,.18,.22,.29l15.46-8.99c-3.65-5.05-7.71-9.86-12.2-14.35-6.71-6.71-14.09-12.48-21.99-17.29l-1.78,2.81-.23,.35-2.1,3.31-.22,.36-2.18,3.44-.24,.36-2.55,4.03c.1,.06,.21,.13,.31,.19,3.42,2.06,6.71,4.32,9.84,6.8,.09,.07,.18,.14,.28,.22l3.2-3.57,.28-.31,2.72-3.04c-.08-.07-.17-.15-.28-.22-.84-.67-1.7-1.33-2.57-1.97-.09-.08-.18-.14-.29-.21l-2.75,3.03c-1.52-1.12-3.07-2.2-4.66-3.22l2.5-3.23,.27-.34,2.4-3.11c4.46,2.93,8.72,6.2,12.75,9.81l-2.73,2.83-.29,.3-2.84,2.95-.28,.29-3.33,3.45-.28,.29-2.82,2.91c-5.49-4.82-11.48-8.94-17.84-12.31l2.01-3.52,.21-.37,2.37-4.13,.21-.37,2.02-3.53,.2-.37,1.96-3.41,.2-.37,1.66-2.9c-16.89-9.2-35.91-14.11-55.69-14.11-2.43,0-4.84,.1-7.24,.25V28.7c-1.36,.11-2.71,.24-4.04,.4-.13,.01-.24,.03-.36,.04-5.07,.63-10,1.66-14.79,3.07l-1.1-3.91-.1-.37-1.29-4.61-.11-.39-1.1-3.94-.11-.39-1.06-3.81c4.96-1.45,10.08-2.55,15.29-3.28v8.56c-1.58,.23-3.12,.5-4.67,.83l-.16-4.17c-.13,.01-.23,.04-.34,.07-1.4,.27-2.78,.57-4.16,.92-.13,.01-.24,.04-.36,.09l.95,4,.09,.37,1.1,4.69c.11-.04,.24-.07,.36-.09,3.8-.92,7.67-1.61,11.58-2.06,.11-.01,.23-.03,.36-.04V6.76c-15.76,1.5-30.85,6.16-44.55,13.65l1.54,2.95,.19,.37,1.81,3.48,.2,.37,1.88,3.61,.19,.39,2.21,4.23c.1-.06,.21-.11,.32-.17,3.5-1.92,7.11-3.63,10.82-5.09,.1-.04,.21-.09,.33-.13l-1.48-4.56-.13-.4-1.26-3.88c-.1,.03-.21,.07-.33,.13-1,.39-2.01,.8-3,1.23-.11,.04-.21,.09-.33,.14l1.23,3.9c-1.73,.75-3.44,1.55-5.13,2.41l-1.53-3.78-.16-.4-1.48-3.64c4.77-2.38,9.75-4.41,14.89-6.09l1.07,3.78,.11,.4,1.12,3.94,.11,.39,1.3,4.62,.11,.39,1.1,3.9c-6.92,2.32-13.5,5.43-19.61,9.23l-2.04-3.51-.22-.37-2.38-4.13-.21-.37-2.04-3.53-.21-.36-1.96-3.41-.21-.36-1.66-2.88c-7.84,4.79-15.18,10.53-21.84,17.2-9.11,9.11-16.5,19.48-22.07,30.69l19.31,11.11c-.58,1.24-1.14,2.47-1.67,3.7-.05,.12-.1,.23-.14,.33-1.98,4.71-3.55,9.5-4.72,14.35l-3.94-.99-.37-.1-4.64-1.18-.39-.09-3.97-1.01-.39-.09-3.83-.98c1.22-5.02,2.81-10.01,4.78-14.89l7.42,4.27c-.59,1.48-1.12,2.96-1.61,4.46l-3.69-1.94c-.05,.12-.08,.22-.11,.33-.46,1.35-.89,2.7-1.28,4.06-.05,.12-.08,.23-.1,.35l3.94,1.17,.37,.11,4.61,1.38c.02-.12,.06-.25,.1-.35,1.1-3.75,2.43-7.45,3.99-11.07,.04-.11,.09-.21,.14-.33l-15.53-8.93c-6.41,14.13-9.93,29.51-10.29,45.43l3.25,.14,.42,.02,3.92,.17h.42s4.07,.19,4.07,.19l.43,.03,4.77,.2c0-.12,0-.24,0-.36,.08-3.99,.4-7.97,.99-11.92,.01-.11,.03-.23,.05-.35l-4.69-.99-.41-.09-4-.84c-.03,.1-.05,.22-.05,.35-.16,1.06-.3,2.14-.43,3.21-.02,.12-.03,.23-.04,.36l3.99,.88c-.22,1.87-.37,3.75-.47,5.65l-4.04-.56-.43-.06-3.89-.54c.32-5.32,1.03-10.65,2.15-15.94l3.82,.96,.41,.1,3.97,1,.39,.09,4.65,1.17,.39,.09,3.93,.99c-1.44,7.16-2.02,14.41-1.78,21.6h-4.06s-.43,.01-.43,.01h-4.76s-.43,0-.43,0h-4.07s-.42,.01-.42,.01h-3.94s-.42,0-.42,0h-3.27c.54,22.37,7.31,43.7,19.55,61.94l19.26-11.2c.78,1.12,1.57,2.22,2.38,3.29,.08,.1,.15,.2,.22,.29,3.1,4.07,6.47,7.81,10.09,11.25l-2.83,2.92-.27,.27-3.34,3.43-.28,.29-2.85,2.94-.28,.29-2.76,2.83c-3.74-3.56-7.27-7.43-10.52-11.57l7.4-4.3c.99,1.25,2,2.45,3.07,3.62l-3.53,2.23c.08,.1,.15,.18,.23,.26,.94,1.08,1.89,2.12,2.88,3.13,.08,.1,.16,.19,.25,.27l2.98-2.83,.28-.26,3.5-3.31c-.09-.08-.18-.17-.25-.27-2.7-2.82-5.24-5.82-7.6-8.97-.07-.09-.14-.18-.22-.29l-15.46,8.99c3.65,5.06,7.72,9.88,12.21,14.38,6.7,6.7,14.08,12.47,21.97,17.28l1.78-2.81,.23-.35,2.1-3.31,.22-.36,2.18-3.44,.24-.36,2.55-4.03c-.1-.06-.21-.13-.31-.19-3.42-2.06-6.71-4.32-9.84-6.8-.09-.07-.18-.14-.28-.22l-3.2,3.57-.28,.31-2.72,3.04c.08,.07,.17,.15,.28,.22,.84,.67,1.7,1.33,2.57,1.97,.09,.08,.18,.14,.29,.21l2.75-3.02c1.52,1.12,3.07,2.2,4.66,3.23l-2.5,3.23-.27,.34-2.41,3.11c-4.46-2.93-8.71-6.21-12.75-9.81l2.73-2.83,.29-.3,2.85-2.95,.28-.29,3.33-3.45,.28-.29,2.82-2.91c5.49,4.82,11.48,8.94,17.83,12.31l-2.01,3.52-.21,.37-2.37,4.13-.21,.37-2.03,3.53-.2,.37-1.96,3.41-.2,.37-1.67,2.9c16.9,9.21,35.92,14.11,55.7,14.11,2.43,0,4.84-.1,7.24-.25v-22.22c1.36-.11,2.71-.24,4.04-.4,.13-.01,.24-.03,.36-.04,5.07-.63,10-1.66,14.79-3.07l1.1,3.91,.1,.37,1.29,4.61,.11,.39,1.1,3.94,.11,.39,1.06,3.81c-4.96,1.45-10.08,2.55-15.29,3.28v-8.56c1.58-.23,3.13-.5,4.67-.83l.16,4.17c.13-.01,.23-.04,.34-.07,1.4-.27,2.78-.57,4.16-.92,.13-.01,.24-.04,.36-.09l-.95-4-.09-.37-1.1-4.69c-.11,.04-.24,.07-.36,.09-3.8,.92-7.67,1.6-11.58,2.06-.11,.01-.23,.03-.36,.04v17.88c15.77-1.5,30.85-6.15,44.55-13.64l-1.54-2.95-.19-.37-1.81-3.48-.2-.37-1.88-3.61-.19-.39-2.21-4.23c-.1,.06-.21,.11-.32,.17-3.5,1.92-7.11,3.63-10.82,5.09-.1,.04-.21,.09-.33,.13l1.48,4.56,.13,.4,1.26,3.88c.1-.03,.21-.07,.33-.13,1-.39,2.01-.8,3-1.23,.11-.04,.21-.09,.33-.14l-1.23-3.9c1.73-.74,3.44-1.55,5.13-2.41l1.53,3.78,.16,.4,1.48,3.64c-4.77,2.38-9.75,4.41-14.89,6.09l-1.07-3.78-.11-.4-1.12-3.94-.11-.39-1.3-4.62-.11-.39-1.1-3.9c6.92-2.32,13.5-5.43,19.61-9.23l2.03,3.51,.22,.37,2.38,4.13,.22,.37,2.03,3.53,.21,.36,1.96,3.41,.21,.36,1.66,2.89c7.85-4.79,15.19-10.54,21.85-17.2,9.11-9.11,16.49-19.48,22.06-30.69l-19.3-11.11Zm.22,33.13l-3.26-2.29-.32-.22-3.39-2.38-.29-.22-3.98-2.79-.31-.21-3.34-2.35c2.81-3.11,5.44-6.44,7.86-9.98l8.02,4.62c-.78,1.17-1.58,2.32-2.41,3.44l-4.21-2.42c-.07,.09-.15,.2-.22,.29-.75,1.02-1.52,2.02-2.32,3-.08,.1-.15,.2-.23,.28l8.17,4.7c.08-.09,.16-.19,.23-.28,2.58-3.28,4.99-6.74,7.21-10.37,.06-.11,.13-.2,.19-.3l-15.22-8.76c-6.25,10.17-14.45,19.01-24.06,26.03l2.15,2.63,.22,.26,2.58,3.16,.26,.32,3.03,3.7,.26,.32,2.59,3.16c.11-.07,.19-.14,.29-.21,3.76-2.78,7.35-5.82,10.76-9.12,.09-.08,.18-.18,.27-.26l-3.22-2.6-.31-.24-3.77-3.05c-.08,.09-.17,.18-.27,.26-.89,.86-1.8,1.69-2.73,2.5-.09,.08-.17,.15-.26,.23l3.28,3.49c-1.13,.99-2.28,1.96-3.47,2.9l-2.88-3.82-.24-.32-2.45-3.24c2.8-2.26,5.5-4.67,8.04-7.28l3.26,2.49,.3,.22,3.85,2.93,.33,.24,3.28,2.5,.32,.25,3.17,2.4c-5.76,6.11-12.13,11.49-18.98,16.05l-2.25-3.18-.25-.36-2.35-3.32-.23-.35-2.76-3.91-.24-.33-2.34-3.32-.21-.29-1.93-2.73c-13.99,9.4-30.71,15.01-48.71,15.4v21.88c-.62,.03-1.25,.03-1.88,.03-7.35,0-14.53-.7-21.48-2.07l.36-3.97,.03-.39,.37-4.13,.04-.36,.43-4.84,.03-.37,.37-4.07c4.1,.89,8.3,1.51,12.57,1.84v9.26c-1.41-.09-2.8-.22-4.19-.37v-4.86c-.11-.01-.24-.03-.36-.04-1.26-.14-2.51-.32-3.75-.52-.13-.01-.24-.03-.36-.06v9.43c.11,.03,.24,.04,.36,.06,4.13,.6,8.33,.96,12.58,1.08,.13,0,.24,.01,.36,.01v-17.55c-12.28-.34-23.95-3.11-34.56-7.86l-1.19,3.15-.11,.32-1.45,3.81-.14,.39-1.69,4.47-.14,.39-1.45,3.83c.11,.06,.21,.1,.33,.14,4.28,1.88,8.71,3.47,13.27,4.77,.11,.04,.24,.07,.36,.1l.65-4.08,.06-.39,.76-4.79c-.11-.03-.24-.06-.36-.1-1.19-.34-2.36-.72-3.53-1.12-.11-.04-.21-.07-.33-.11l-1.39,4.59c-1.42-.49-2.84-1-4.24-1.56l1.88-4.4,.16-.37,1.59-3.74c3.35,1.3,6.79,2.44,10.32,3.34l-.53,4.07-.04,.37-.62,4.8-.04,.4-.53,4.08-.06,.4-.5,3.94c-8.17-1.95-16.01-4.79-23.37-8.44l1.63-3.54,.19-.4,1.71-3.7,.19-.37,2.01-4.34,.17-.37,1.71-3.68,.14-.33,1.4-3.02c-15.45-7.66-28.44-19.56-37.41-34.18l-18.92,11c-.33-.52-.65-1.06-.97-1.61-3.7-6.36-6.7-12.92-9.01-19.61l3.61-1.69,.35-.17,3.76-1.75,.33-.14,4.4-2.06,.34-.16,3.71-1.72c1.29,3.99,2.87,7.93,4.73,11.79l-8,4.65c-.63-1.26-1.22-2.52-1.78-3.81l4.2-2.44c-.05-.11-.1-.22-.14-.33-.51-1.16-.99-2.33-1.44-3.51-.05-.12-.1-.23-.13-.34l-8.15,4.74c.03,.11,.09,.23,.13,.34,1.55,3.87,3.35,7.68,5.4,11.42,.06,.11,.11,.22,.17,.32l15.17-8.82c-5.61-10.25-9.3-21.69-10.6-33.83l-3.3,.55-.33,.06-4.02,.66-.41,.07-4.72,.79-.41,.07-4.04,.67c0,.13,.02,.24,.04,.36,.53,4.65,1.38,9.28,2.54,13.87,.02,.12,.06,.25,.09,.36l3.86-1.5,.36-.15,4.52-1.75c-.03-.11-.07-.24-.09-.36-.3-1.2-.57-2.4-.81-3.61-.02-.12-.05-.22-.07-.34l-4.66,1.1c-.29-1.47-.56-2.96-.78-4.45l4.75-.59,.4-.05,4.03-.5c.56,3.55,1.31,7.1,2.3,10.6l-3.79,1.59-.34,.15-4.46,1.88-.37,.16-3.8,1.59-.38,.15-3.66,1.55c-2.42-8.04-3.91-16.25-4.45-24.45l3.88-.37,.44-.04,4.05-.38,.42-.03,4.76-.45,.41-.04,4.04-.38,.36-.04,3.31-.31c-.14-2.06-.24-4.13-.24-6.22,0-15.82,4.06-30.71,11.18-43.68l-18.96-10.91c.28-.55,.6-1.09,.91-1.64,3.67-6.37,7.86-12.25,12.5-17.59l3.26,2.29,.32,.22,3.39,2.38,.29,.22,3.98,2.79,.31,.21,3.34,2.35c-2.81,3.11-5.44,6.44-7.86,9.98l-8.03-4.62c.78-1.17,1.58-2.32,2.41-3.44l4.21,2.42c.07-.09,.15-.2,.22-.29,.75-1.02,1.52-2.02,2.32-3,.08-.1,.15-.2,.23-.28l-8.17-4.7c-.08,.09-.16,.19-.23,.28-2.58,3.28-4.98,6.74-7.21,10.37-.06,.11-.13,.2-.19,.3l15.22,8.76c6.25-10.17,14.45-19.01,24.06-26.02l-2.15-2.63-.22-.26-2.58-3.16-.26-.32-3.03-3.7-.26-.32-2.59-3.16c-.11,.07-.19,.14-.29,.21-3.76,2.78-7.35,5.82-10.76,9.12-.09,.08-.18,.18-.27,.26l3.22,2.6,.31,.24,3.77,3.05c.08-.09,.17-.18,.27-.26,.89-.86,1.8-1.69,2.73-2.5,.09-.08,.17-.15,.26-.23l-3.28-3.49c1.13-.99,2.28-1.96,3.47-2.9l2.88,3.82,.24,.32,2.45,3.24c-2.8,2.26-5.5,4.67-8.04,7.28l-3.26-2.49-.3-.22-3.85-2.93-.33-.24-3.28-2.5-.32-.25-3.17-2.4c5.76-6.11,12.13-11.49,18.97-16.05l2.25,3.18,.25,.36,2.35,3.32,.23,.35,2.76,3.91,.24,.33,2.34,3.32,.21,.29,1.93,2.73c13.99-9.4,30.71-15.01,48.7-15.4V9.95c.62-.03,1.25-.03,1.88-.03,7.35,0,14.53,.7,21.48,2.06l-.36,3.97-.03,.39-.37,4.13-.04,.36-.43,4.84-.03,.37-.37,4.07c-4.1-.89-8.3-1.5-12.57-1.83v-9.26c1.4,.09,2.8,.22,4.19,.37v4.86c.11,.01,.24,.03,.36,.04,1.26,.14,2.51,.32,3.75,.52,.13,.01,.24,.03,.36,.06V15.44c-.11-.03-.24-.04-.36-.06-4.13-.6-8.33-.96-12.58-1.07-.13,0-.24-.01-.36-.01V31.85c12.28,.34,23.95,3.11,34.56,7.85l1.2-3.16,.11-.32,1.45-3.81,.14-.39,1.69-4.47,.14-.39,1.45-3.83c-.11-.06-.22-.1-.33-.14-4.29-1.88-8.71-3.47-13.27-4.77-.11-.04-.24-.07-.36-.1l-.65,4.08-.06,.39-.76,4.79c.11,.03,.24,.06,.36,.1,1.19,.34,2.36,.72,3.53,1.12,.11,.04,.21,.07,.33,.11l1.39-4.59c1.42,.49,2.84,1,4.24,1.56l-1.88,4.4-.16,.37-1.59,3.74c-3.35-1.3-6.79-2.44-10.32-3.34l.53-4.07,.04-.37,.62-4.8,.04-.4,.53-4.08,.06-.4,.5-3.94c8.17,1.95,16.01,4.79,23.38,8.44l-1.63,3.54-.19,.4-1.71,3.7-.19,.37-2.01,4.34-.17,.37-1.71,3.68-.14,.33-1.4,3.03c15.45,7.65,28.43,19.55,37.41,34.17l18.92-11.01c.33,.52,.65,1.06,.97,1.61,3.7,6.36,6.7,12.92,9.02,19.61l-3.61,1.69-.35,.17-3.76,1.75-.33,.14-4.4,2.06-.34,.16-3.71,1.72c-1.29-3.99-2.87-7.93-4.73-11.79l8-4.66c.63,1.26,1.22,2.52,1.78,3.81l-4.2,2.44c.05,.11,.1,.22,.14,.33,.51,1.16,.99,2.33,1.44,3.51,.05,.12,.1,.23,.13,.34l8.15-4.74c-.03-.11-.09-.23-.13-.34-1.55-3.87-3.36-7.68-5.4-11.42-.06-.11-.11-.22-.17-.32l-15.17,8.82c5.61,10.25,9.3,21.68,10.6,33.83l3.31-.55,.33-.06,4.02-.67,.41-.07,4.72-.79,.41-.07,4.04-.67c0-.13-.02-.24-.04-.36-.53-4.65-1.38-9.28-2.55-13.87-.02-.12-.06-.25-.09-.36l-3.86,1.5-.36,.15-4.52,1.75c.03,.11,.07,.24,.09,.36,.3,1.2,.57,2.4,.81,3.61,.02,.12,.05,.22,.07,.34l4.66-1.1c.29,1.47,.56,2.96,.78,4.45l-4.75,.59-.4,.05-4.03,.51c-.56-3.55-1.31-7.1-2.3-10.6l3.79-1.59,.34-.15,4.46-1.88,.37-.16,3.8-1.6,.38-.15,3.66-1.55c2.42,8.04,3.91,16.25,4.46,24.45l-3.88,.37-.44,.04-4.05,.38-.42,.03-4.76,.45-.41,.04-4.04,.38-.36,.04-3.32,.31c.14,2.06,.24,4.14,.24,6.24,0,15.82-4.06,30.7-11.18,43.68l18.97,10.91c-.28,.55-.6,1.09-.91,1.64-3.67,6.37-7.86,12.25-12.5,17.59Z"/>
        <path class="cls-2" d="M122.89,245.78C55.13,245.78,0,190.65,0,122.89S55.13,0,122.89,0s122.89,55.13,122.89,122.89-55.13,122.89-122.89,122.89Zm0-242.92C56.71,2.87,2.87,56.71,2.87,122.89s53.84,120.02,120.02,120.02,120.02-53.84,120.02-120.02S189.07,2.87,122.89,2.87Z"/>
      </g>
    </g>
  </g>
</svg>